<svg version="1.1" baseProfile="full" xmlns="http://www.w3.org/2000/svg" width="1024ptpx" height="1024ptpx" viewBox="0 0 1024 1024" preserveAspectRatio="xMidYMid meet" transform="rotate(0) scale(1, 1)">
<g id="svg" fill="#ff010100" stroke="none" stroke-linecap="round" transform="scale(0.1,0.1)">
<path d="M0 5120l0 5120 5120 0 5120 0 0 -5120 0 -5120 -5120 0 -5120 0 0 5120 z" fill="#621f1f00"/>
<path d="M5682 2695c-20 16 -207 318 -497 799 -434 721 -465 776 -465 818 0 36 6 54 26 78 &#10;15 17 39 37 55 45 15 8 46 15 67 15 25 0 52 -9 73 -23 27 -18 117 -159 392 -615 &#10;327 -540 360 -592 392 -603 27 -10 40 -10 61 0 21 9 182 271 724 1174 383 639 733 1222 778 1295 &#10;45 73 85 144 88 157 4 16 -1 30 -15 44 -19 19 -32 21 -166 21 -121 0 -149 -3 -171 -17 &#10;-16 -11 -206 -314 -498 -798 -456 -752 -474 -781 -512 -795 -35 -14 -42 -13 -78 3 &#10;-36 16 -62 56 -373 570 -184 303 -344 562 -355 574 -11 12 -33 25 -49 28 &#10;-17 4 -39 0 -58 -9 -24 -13 -134 -189 -557 -892 -361 -599 -537 -884 -560 -902 &#10;-21 -17 -45 -26 -68 -26 -22 0 -48 9 -68 24 -22 16 -233 358 -735 1194 -681 1134 -704 1172 -701 1216 &#10;2 36 10 51 35 75 l32 30 1755 3 c1461 2 1762 0 1790 -12 19 -7 46 -30 60 -51 &#10;17 -24 26 -52 26 -75 0 -23 -9 -51 -24 -73 -13 -19 -35 -41 -48 -49 -17 -10 -111 -14 -394 -18 &#10;l-371 -5 326 -535 c320 -525 327 -535 364 -544 35 -9 40 -7 66 20 16 16 199 314 406 662 &#10;248 416 388 641 407 655 29 22 35 22 458 25 358 2 435 0 464 -12 19 -8 42 -25 50 -38 &#10;9 -14 17 -43 18 -66 1 -38 -25 -85 -289 -524 -159 -266 -603 -1005 -987 -1643 &#10;-384 -638 -711 -1173 -726 -1189 -20 -20 -40 -30 -72 -33 -37 -4 -49 -1 -76 22 &#10;z" fill="#ffffff"/>
<path d="M3862 4188c-11 9 -237 377 -502 817 -264 440 -483 809 -486 820 -3 13 3 32 16 48 &#10;l21 27 375 0 c305 0 380 -3 402 -14 20 -10 82 -104 224 -339 174 -287 200 -326 233 -341 &#10;22 -11 51 -16 72 -14 21 3 52 18 74 37 27 22 42 45 50 76 9 37 8 49 -9 87 &#10;-11 25 -72 131 -136 236 -64 105 -116 201 -116 213 0 12 7 31 17 41 15 17 43 18 460 18 &#10;243 0 443 -3 443 -7 0 -5 -222 -377 -494 -828 -271 -451 -507 -837 -525 -857 &#10;-25 -30 -38 -38 -65 -38 -19 0 -43 8 -54 18 z" fill="#621f1f00"/>
<path d="M2614 6560c-31 12 -75 39 -101 63 -25 23 -57 65 -69 92 -17 36 -24 68 -24 115 &#10;0 42 7 79 19 105 10 22 36 56 56 75 21 19 58 43 82 53 24 10 103 29 175 42 &#10;99 17 140 29 162 47 18 14 34 38 40 61 8 31 6 45 -12 82 -15 31 -35 52 -69 72 &#10;-39 23 -60 28 -113 28 -45 0 -77 -6 -105 -20 -25 -13 -57 -44 -87 -85 -32 -43 -58 -68 -78 -75 &#10;-24 -7 -35 -5 -57 10 -22 16 -29 29 -31 63 -2 33 3 54 23 88 15 25 48 63 74 84 &#10;27 20 73 47 103 58 30 11 87 23 126 26 47 4 94 1 135 -8 34 -8 89 -31 121 -52 &#10;45 -28 68 -51 94 -95 26 -44 35 -72 39 -122 4 -46 1 -79 -12 -117 -11 -34 -33 -68 -60 -95 &#10;-25 -25 -64 -51 -96 -63 -30 -11 -105 -28 -167 -37 -78 -11 -124 -23 -152 -40 &#10;-29 -17 -42 -33 -46 -54 -4 -17 -4 -43 -2 -58 3 -16 20 -43 37 -60 19 -20 49 -37 77 -44 &#10;25 -6 66 -9 92 -5 25 3 63 17 84 31 21 14 54 48 74 76 35 50 36 51 81 47 &#10;38 -3 47 -8 60 -32 10 -18 13 -40 8 -62 -3 -19 -26 -59 -50 -88 -32 -39 -62 -63 -111 -87 &#10;-60 -30 -78 -34 -166 -36 -79 -2 -109 1 -154 17 z" fill="#ffffff"/>
<path d="M3345 6590l-25 30 0 313 c0 311 0 312 26 381 20 55 38 82 84 127 40 39 76 64 114 78 &#10;33 13 90 23 141 26 71 4 97 1 156 -18 51 -17 86 -36 125 -70 36 -32 64 -69 86 -115 &#10;l33 -67 3 -328 3 -327 -30 -30 c-18 -18 -40 -30 -56 -30 -16 0 -38 12 -56 29 &#10;l-29 29 0 309 c0 279 -2 312 -19 349 -10 23 -37 55 -60 73 -23 17 -62 36 -87 42 &#10;-35 9 -59 9 -100 0 -35 -8 -68 -24 -91 -44 -20 -18 -44 -50 -54 -72 -17 -36 -19 -72 -19 -347 &#10;l0 -306 -26 -31 c-20 -24 -34 -31 -60 -31 -26 0 -40 7 -59 30 z" fill="#ffffff"/>
<path d="M4514 7325l-3 -202 c-1 -121 3 -203 8 -203 6 0 13 5 16 11 l7 12 107 141 &#10;c58 77 120 150 137 161 25 16 35 18 55 8 14 -6 76 -77 137 -157 l105 -133 &#10;9 -11 -2 -7 c0 -3 2 -5 5 -5 3 0 10 -3 15 -6 6 -3 10 -3 10 0 0 2 0 28 0 71 &#10;0 51 0 125 0 205 l0 271 25 24 c15 16 36 25 54 25 16 0 43 -10 58 -22 l28 -23 3 -431 &#10;3 -432 -27 -32 c-24 -28 -32 -31 -68 -28 -40 4 -42 7 -203 223 -89 120 -166 222 -171 227 &#10;-6 6 -73 -77 -167 -204 -87 -117 -167 -221 -178 -230 -10 -10 -32 -18 -48 -18 &#10;-15 0 -40 11 -55 24 l-28 23 0 436 -1 436 24 25 c17 18 35 26 57 26 20 0 43 -9 59 -22 &#10;l26 -23 3 -160 z" fill="#ffffff"/>
<path d="M5705 7365l-4 -217 c0 -120 2 -219 7 -220 l7 -3 0 0 122 161 c83 109 131 164 147 168 &#10;13 3 34 2 45 -2 12 -4 77 -82 145 -172 l124 -165 6 6 c3 3 6 130 6 283 l0 201 &#10;0 76 25 24 c14 15 36 25 53 25 16 0 41 -9 56 -21 l26 -20 0 -442 c0 -439 0 -441 -22 -464 &#10;-14 -15 -33 -23 -54 -23 -17 0 -41 8 -52 18 -11 9 -89 109 -172 222 -84 113 -156 208 -159 213 &#10;-4 4 -81 -91 -171 -210 -89 -120 -170 -224 -178 -230 -9 -7 -29 -13 -44 -13 &#10;-17 0 -39 10 -53 25 l-25 24 0 437 c0 436 0 438 22 461 15 16 33 23 58 23 &#10;26 0 43 -7 59 -24 17 -18 22 -26 26 -141 z" fill="#ffffff"/>
<path d="M6757 6588l-22 27 0 430 0 430 24 28 c18 19 34 27 58 27 23 0 42 -8 58 -25 &#10;l25 -24 0 -436 0 -436 -25 -24 c-16 -17 -35 -25 -60 -25 -26 0 -41 7 -58 28 &#10;z" fill="#ffffff"/>
<path d="M7406 6570l-309 5 -19 30 c-10 17 -18 36 -18 43 0 7 5 23 11 35 7 12 20 28 30 35 &#10;13 8 58 12 133 12 93 0 116 3 127 16 11 14 14 88 14 373 l0 356 24 28 c18 19 34 27 58 27 &#10;24 0 41 -8 58 -26 l25 -27 0 -361 c0 -268 3 -365 12 -374 8 -8 51 -12 125 -12 &#10;108 0 115 -1 138 -25 17 -16 25 -35 25 -58 0 -23 -8 -41 -25 -57 -16 -15 -37 -23 -62 -24 &#10;-21 0 -177 1 -347 4 z" fill="#ffffff"/>
<path d="M4514 7325l3 -117 c4 -171 10 -275 16 -271 l9 6 -7 -12 c-3 -6 -10 -11 -16 -11 &#10;-5 0 -9 82 -8 203 l3 202 z" fill="#ff000000"/>
<path d="M5705 7365c1 -40 2 -92 4 -162 l6 -278 -7 3 c-5 1 -7 100 -7 220 l4 217 zm10 -440 l0 0 0 0 z" fill="#ff000000"/>
<path d="M6298 6915l4 245 8 245 0 -201 c0 -153 -3 -280 -6 -283 l-6 -6 z" fill="#ff000000"/>
<path d="M5083 6963l2 -3 c3 0 5 -2 5 -4 0 -1 1 -3 2 -4 l-9 11 zm9 -11 c2 -2 4 -5 7 -7 5 -3 12 9 14 27 l7 33 c0 -43 0 -69 0 -71 0 -3 -4 -3 -10 0 &#10;-5 3 -12 6 -15 6 -3 0 -5 2 -5 5 l2 7 z" fill="#ff000000"/>
</g>
</svg>